{"title":"Extreme.Collectors.S01E03.WEBRip.x264-WNN","uid":12062427,"size":202930630,"categoryP":"video","categoryS":"tv_shows","magnet":"?xt=urn:btih:6d27165bd6f2832087ed68ad2de3ad4914680a9a&amp;dn=Extreme.Collectors.S01E03.WEBRip.x264-WNN&amp;tr=udp%3A%2F%2Ftracker.openbittorrent.com%3A80&amp;tr=udp%3A%2F%2Fopen.demonii.com%3A1337&amp;tr=udp%3A%2F%2Ftracker.coppersurfer.tk%3A6969&amp;tr=udp%3A%2F%2Fexodus.desync.com%3A6969","seeders":0,"leechers":0,"uploader":"Mulva1989","files":1,"time":1435310572,"description":"Extreme.Collectors.S01E03.WEBRip.x264-WNN\n\nIn this episode Andrew is in Las Vegas!  In the city famous for its glitz and glamour, Andrew discovers an incredible collection of showgirl costumes and celebrity gowns that could be worth millions.  Vegas continues its giving ways as Andrew gains access to a room full of sports caps, a shrine to celebrity dolls, and a massive Pepsi collection.\n\nScreens @ &lt;a href=&quot;\nhttps://yuq.me/users/50/321/4jYSaP2peW.jpg&quot; rel=&quot;nofollow&quot; target=&quot;_NEW&quot;&gt;\nhttps://yuq.me/users/50/321/4jYSaP2peW.jpg&lt;/a&gt; &lt;a href=&quot;\nhttps://yuq.me/users/50/321/jVrJtsHohd.jpg&quot; rel=&quot;nofollow&quot; target=&quot;_NEW&quot;&gt;\nhttps://yuq.me/users/50/321/jVrJtsHohd.jpg&lt;/a&gt;\n\nFormat                      : MPEG-4\nFormat profile              : Base Media\nCodec ID                    : isom\nFile size                   : 194 MiB\nDuration                    : 22mn 6s\nOverall bit rate mode       : Variable\nOverall bit rate            : 1 224 Kbps\nEncoded date                : UTC 2015-06-13 20:12:41\nTagged date                 : UTC 2015-06-13 20:12:41\n\nVideo\nID                          : 1\nFormat                      : AVC\nFormat/Info                 : Advanced Video Codec\nFormat profile              : &lt;a class=&quot;__cf_email__&quot; href=&quot;/cdn-cgi/l/email-protection&quot; data-cfemail=&quot;8fc7e6e8e7cfc3bca1be&quot;&gt;[email&amp;#160;protected]&lt;/a&gt;&lt;script data-cfhash='f9e31' type=&quot;text/javascript&quot;&gt;\n/* &lt;![CDATA[ */!function(){try{var t=&quot;currentScript&quot;in document?document.currentScript:function(){for(var t=document.getElementsByTagName(&quot;script&quot;),e=t.length;e--;)if(t[e].getAttribute(&quot;data-cfhash&quot;))return t[e]}();if(t&amp;&amp;t.previousSibling){var e,r,n,i,c=t.previousSibling,a=c.getAttribute(&quot;data-cfemail&quot;);if(a){for(e=&quot;&quot;,r=parseInt(a.substr(0,2),16),n=2;a.length-n;n+=2)i=parseInt(a.substr(n,2),16)^r,e+=String.fromCharCode(i);e=document.createTextNode(e),c.parentNode.replaceChild(e,c)}t.parentNode.removeChild(t);}}catch(u){}}()/* ]]&gt; */&lt;/script&gt;\nFormat settings, CABAC      : Yes\nFormat settings, ReFrames   : 5 frames\nCodec ID                    : avc1\nCodec ID/Info               : Advanced Video Coding\nDuration                    : 22mn 6s\nBit rate                    : 1 116 Kbps\nMaximum bit rate            : 4 088 Kbps\nWidth                       : 640 pixels\nHeight                      : 360 pixels\nDisplay aspect ratio        : 16:9\nFrame rate mode             : Constant\nFrame rate                  : 30.000 fps\nColor space                 : YUV\nChroma subsampling          : 4:2:0\nBit depth                   : 8 bits\nScan type                   : Progressive\nBits/(Pixel*Frame)          : 0.162\nStream size                 : 177 MiB (91%)\nWriting library             : x264 core 146 r2538 121396c\nEncoding settings           : cabac=1 / ref=5 / deblock=1:0:0 / analyse=0x3:0x113 / me=umh / subme=8 / psy=1 / psy_rd=1.00:0.00 / mixed_ref=1 / me_range=16 / chroma_me=1 / trellis=1 / 8x8dct=1 / cqm=0 / deadzone=21,11 / fast_pskip=1 / chroma_qp_offset=-2 / threads=12 / lookahead_threads=2 / sliced_threads=0 / nr=0 / decimate=1 / interlaced=0 / bluray_compat=0 / constrained_intra=0 / bframes=3 / b_pyramid=2 / b_adapt=2 / b_bias=0 / direct=3 / weightb=1 / open_gop=0 / weightp=2 / keyint=300 / keyint_min=30 / scenecut=40 / intra_refresh=0 / rc_lookahead=50 / rc=crf / mbtree=1 / crf=19.0 / qcomp=0.60 / qpmin=0 / qpmax=69 / qpstep=4 / ip_ratio=1.40 / aq=1:1.00\nEncoded date                : UTC 2015-06-13 08:04:25\nTagged date                 : UTC 2015-06-13 20:12:42\n\nAudio\nID                          : 2\nFormat                      : AAC\nFormat/Info                 : Advanced Audio Codec\nFormat profile              : LC\nCodec ID                    : 40\nDuration                    : 22mn 6s\nBit rate mode               : Variable\nBit rate                    : 103 Kbps\nMaximum bit rate            : 125 Kbps\nChannel(s)                  : 2 channels\nChannel positions           : Front: L R\nSampling rate               : 44.1 KHz\nCompression mode            : Lossy\nStream size                 : 16.3 MiB (8%)\nLanguage                    : English\nEncoded date                : UTC 2015-06-13 07:42:30\nTagged date                 : UTC 2015-06-13 20:12:42","torrent":{"xt":"urn:btih:6d27165bd6f2832087ed68ad2de3ad4914680a9a","amp;dn":"Extreme.Collectors.S01E03.WEBRip.x264-WNN","amp;tr":["udp%3A%2F%2Ftracker.openbittorrent.com%3A80","udp%3A%2F%2Fopen.demonii.com%3A1337","udp%3A%2F%2Ftracker.coppersurfer.tk%3A6969","udp%3A%2F%2Fexodus.desync.com%3A6969"],"infoHash":"6d27165bd6f2832087ed68ad2de3ad4914680a9a","infoHashBuffer":{"type":"Buffer","data":[109,39,22,91,214,242,131,32,135,237,104,173,45,227,173,73,20,104,10,154]},"announce":[],"urlList":[]}}